<?xml version="1.0" encoding="utf-8"?>
<!-- Generator: Adobe Illustrator 18.1.1, SVG Export Plug-In . SVG Version: 6.00 Build 0)  -->
<!DOCTYPE svg PUBLIC "-//W3C//DTD SVG 1.1//EN" "http://www.w3.org/Graphics/SVG/1.1/DTD/svg11.dtd">
<svg version="1.1" id="Layer_1" xmlns="http://www.w3.org/2000/svg" xmlns:xlink="http://www.w3.org/1999/xlink" x="0px" y="0px"
	 viewBox="0 0 434.9 434.9" enable-background="new 0 0 434.9 434.9" xml:space="preserve">
<g>
	<path fill="none" d="M-522.7-411.3C-522.7-411.2-522.7-411.2-522.7-411.3L-522.7-411.3L-522.7-411.3L-522.7-411.3
		c0.1,0.1,0.1,0.1,0.1,0.1c0.1,0.1,0.2,0.2,0.3,0.3l6.7-6.8c-0.3,0.1-0.6,0.2-0.9,0.4c6.3-15.4,3.3-33.5-8.3-46
		c-0.5-0.5-1.1-0.7-1.7-0.6c-0.6,0.1-1.2,0.4-1.6,1C-538.1-446.5-535.8-425.3-522.7-411.3z"/>
	<path fill="none" d="M-505.5-428.2C-505.5-428.2-505.5-428.2-505.5-428.2c0,0,0.1,0.1,0.1,0.1l37.6-38.2c-0.5-0.5-1.1-0.7-1.8-0.6
		c-19,2.8-34,18-36.6,36.9C-506.2-429.3-506-428.6-505.5-428.2z"/>
	<path fill="none" d="M-544.3-390.7c-5.1,5-10.6,7.4-16.4,7.3c-10.8-0.2-19.1-9.4-19.2-9.5c-0.5-0.6-1.4-0.7-2-0.2
		c-2.1,1.7-3.3,3.4-3.8,5l0,0c0,0,24.2,20.8,42.9-1.9l6.6-6.7c-0.5,0.2-1,0.3-1.5,0.6c6.3-15.4,3.3-33.5-8.3-46
		c-0.4-0.5-1.1-0.7-1.7-0.6c-0.6,0.1-1.2,0.4-1.6,1C-559-425.6-556.9-404.7-544.3-390.7z"/>
	<path opacity="0.3" fill="#286C49" d="M-503.7-427.6c19-2.8,34-18,36.6-36.9c0.1-0.6-0.1-1.3-0.6-1.8l-37.6,38.2
		C-504.9-427.7-504.3-427.5-503.7-427.6z"/>
	<path opacity="0.3" fill="#286C49" d="M-470.9-405.7c0.6-0.3,0.9-0.9,1-1.6c0.1-0.6-0.2-1.3-0.6-1.7c-12.2-11.4-29.8-14.5-45-8.7
		l-6.7,6.8C-508.3-398.1-487.3-395.9-470.9-405.7z"/>
	<path opacity="0.3" fill="#286C49" d="M-585.7-388.1L-585.7-388.1c-1.1,3.1,0,5.5,0,5.6c0.1,0.1,0.1,0.2,0.2,0.3
		c0.1,0.1,0.3,0.3,0.4,0.4c10.4,6,19.9,7.8,28.2,5.3c8.5-2.6,13.3-9.1,15-11.9c14,11.6,34.1,13.3,49.8,3.9c0.6-0.3,0.9-0.9,1-1.6
		c0.1-0.6-0.2-1.3-0.6-1.7c-12-11.2-29.4-14.5-44.5-8.9l-6.6,6.7C-561.5-367.3-585.7-388.1-585.7-388.1z"/>
	<path fill="#286C49" d="M-456.1-481.4c-36.5-36.5-95.6-36.5-132.1,0c-36.5,36.5-36.5,95.6,0,132.1c36.5,36.5,95.6,36.5,132.1,0
		C-419.6-385.8-419.6-444.9-456.1-481.4z M-469.5-466.9c0.6-0.1,1.3,0.1,1.8,0.6c0.5,0.5,0.7,1.1,0.6,1.8
		c-2.6,19-17.6,34.2-36.6,36.9c-0.6,0.1-1.2-0.1-1.6-0.5c0,0-0.1,0-0.1-0.1c0,0,0,0,0,0c-0.5-0.5-0.7-1.1-0.6-1.8
		C-503.5-448.9-488.5-464.1-469.5-466.9z M-526.7-463.9c0.6-0.1,1.3,0.2,1.7,0.6c11.6,12.4,14.7,30.6,8.3,46
		c0.3-0.1,0.6-0.2,0.9-0.4c15.2-5.8,32.9-2.7,45,8.7c0.5,0.5,0.7,1.1,0.6,1.7c-0.1,0.6-0.4,1.2-1,1.6c-16.3,9.8-37.4,7.6-51.4-5.2
		c-0.1-0.1-0.2-0.2-0.3-0.3c0,0,0,0-0.1,0l0,0l0,0l0,0c0,0,0,0,0-0.1c-13.1-14-15.3-35.3-5.5-51.7
		C-527.9-463.5-527.3-463.9-526.7-463.9z M-547.8-442.9c0.6-0.1,1.3,0.2,1.7,0.6c11.6,12.4,14.7,30.6,8.3,46c0.5-0.2,1-0.4,1.5-0.6
		c15.1-5.6,32.5-2.3,44.5,8.9c0.5,0.4,0.7,1.1,0.6,1.7c-0.1,0.6-0.4,1.2-1,1.6c-15.7,9.4-35.9,7.7-49.8-3.9
		c-1.7,2.9-6.5,9.3-15,11.9c-8.3,2.6-17.8,0.8-28.2-5.3c-0.2-0.1-0.3-0.2-0.4-0.4c-0.1-0.1-0.1-0.2-0.2-0.3c-0.1-0.2-1.1-2.6,0-5.6
		c0.6-1.6,1.7-3.3,3.8-5c0.6-0.5,1.5-0.4,2,0.2c0.1,0.1,8.4,9.3,19.2,9.5c5.8,0.1,11.3-2.3,16.4-7.3c-12.6-14-14.7-34.9-5-51.1
		C-549-442.4-548.4-442.8-547.8-442.9z"/>
	<text transform="matrix(1 0 0 1 -369.9943 -386.7243)"><tspan x="0" y="0" fill="#286C49" font-family="'Judson-Regular'" font-size="138.8911">c</tspan><tspan x="66.5" y="0" fill="#286C49" font-family="'Judson-Regular'" font-size="138.8911" letter-spacing="5">a</tspan><tspan x="139.2" y="0" fill="#286C49" font-family="'Judson-Regular'" font-size="138.8911">ro</tspan><tspan x="269.7" y="0" fill="#286C49" font-family="'Judson-Regular'" font-size="138.8911" letter-spacing="-11">l</tspan><tspan x="294.4" y="0" fill="#286C49" font-family="'Judson-Regular'" font-size="138.8911"> k</tspan><tspan x="397.4" y="0" fill="#286C49" font-family="'Judson-Regular'" font-size="138.8911" letter-spacing="2">a</tspan><tspan x="467.2" y="0" fill="#286C49" font-family="'Judson-Regular'" font-size="138.8911" letter-spacing="-2">h</tspan><tspan x="540.8" y="0" fill="#286C49" font-family="'Judson-Regular'" font-size="138.8911">n</tspan></text>
	<rect id="_x3C_Slice_x3E__8_" x="-692.2" y="-581" fill="none" width="1008" height="331.2"/>
</g>
<g>
	<path fill="none" d="M485.3-411.3C485.3-411.2,485.3-411.2,485.3-411.3L485.3-411.3L485.3-411.3L485.3-411.3
		c0.1,0.1,0.1,0.1,0.1,0.1c0.1,0.1,0.2,0.2,0.3,0.3l6.7-6.8c-0.3,0.1-0.6,0.2-0.9,0.4c6.3-15.4,3.3-33.5-8.3-46
		c-0.5-0.5-1.1-0.7-1.7-0.6c-0.6,0.1-1.2,0.4-1.6,1C469.9-446.5,472.2-425.3,485.3-411.3z"/>
	<path fill="none" d="M502.5-428.2C502.5-428.2,502.5-428.2,502.5-428.2c0,0,0.1,0.1,0.1,0.1l37.6-38.2c-0.5-0.5-1.1-0.7-1.8-0.6
		c-19,2.8-34,18-36.6,36.9C501.8-429.3,502-428.6,502.5-428.2z"/>
	<path fill="none" d="M463.7-390.7c-5.1,5-10.6,7.4-16.4,7.3c-10.8-0.2-19.1-9.4-19.2-9.5c-0.5-0.6-1.4-0.7-2-0.2
		c-2.1,1.7-3.3,3.4-3.8,5l0,0c0,0,24.2,20.8,42.9-1.9l6.6-6.7c-0.5,0.2-1,0.3-1.5,0.6c6.3-15.4,3.3-33.5-8.3-46
		c-0.4-0.5-1.1-0.7-1.7-0.6c-0.6,0.1-1.2,0.4-1.6,1C449-425.6,451.1-404.7,463.7-390.7z"/>
	<path opacity="0.28" fill="#EDECE4" d="M504.3-427.6c19-2.8,34-18,36.6-36.9c0.1-0.6-0.1-1.3-0.6-1.8l-37.6,38.2
		C503.1-427.7,503.7-427.5,504.3-427.6z"/>
	<path opacity="0.28" fill="#EDECE4" d="M537.1-405.7c0.6-0.3,0.9-0.9,1-1.6c0.1-0.6-0.2-1.3-0.6-1.7c-12.2-11.4-29.8-14.5-45-8.7
		l-6.7,6.8C499.7-398.1,520.7-395.9,537.1-405.7z"/>
	<path opacity="0.28" fill="#EDECE4" d="M422.3-388.1L422.3-388.1c-1.1,3.1,0,5.5,0,5.6c0.1,0.1,0.1,0.2,0.2,0.3
		c0.1,0.1,0.3,0.3,0.4,0.4c10.4,6,19.9,7.8,28.2,5.3c8.5-2.6,13.3-9.1,15-11.9c14,11.6,34.1,13.3,49.8,3.9c0.6-0.3,0.9-0.9,1-1.6
		c0.1-0.6-0.2-1.3-0.6-1.7c-12-11.2-29.4-14.5-44.5-8.9l-6.6,6.7C446.5-367.3,422.3-388.1,422.3-388.1z"/>
	<path fill="#EDECE4" d="M551.9-481.4c-36.5-36.5-95.6-36.5-132.1,0c-36.5,36.5-36.5,95.6,0,132.1c36.5,36.5,95.6,36.5,132.1,0
		C588.4-385.8,588.4-444.9,551.9-481.4z M538.5-466.9c0.6-0.1,1.3,0.1,1.8,0.6c0.5,0.5,0.7,1.1,0.6,1.8c-2.6,19-17.6,34.2-36.6,36.9
		c-0.6,0.1-1.2-0.1-1.6-0.5c0,0-0.1,0-0.1-0.1c0,0,0,0,0,0c-0.5-0.5-0.7-1.1-0.6-1.8C504.5-448.9,519.5-464.1,538.5-466.9z
		 M481.3-463.9c0.6-0.1,1.3,0.2,1.7,0.6c11.6,12.4,14.7,30.6,8.3,46c0.3-0.1,0.6-0.2,0.9-0.4c15.2-5.8,32.9-2.7,45,8.7
		c0.5,0.5,0.7,1.1,0.6,1.7c-0.1,0.6-0.4,1.2-1,1.6c-16.3,9.8-37.4,7.6-51.4-5.2c-0.1-0.1-0.2-0.2-0.3-0.3c0,0,0,0-0.1,0l0,0l0,0l0,0
		c0,0,0,0,0-0.1c-13.1-14-15.3-35.3-5.5-51.7C480.1-463.5,480.7-463.9,481.3-463.9z M460.2-442.9c0.6-0.1,1.3,0.2,1.7,0.6
		c11.6,12.4,14.7,30.6,8.3,46c0.5-0.2,1-0.4,1.5-0.6c15.1-5.6,32.5-2.3,44.5,8.9c0.5,0.4,0.7,1.1,0.6,1.7c-0.1,0.6-0.4,1.2-1,1.6
		c-15.7,9.4-35.9,7.7-49.8-3.9c-1.7,2.9-6.5,9.3-15,11.9c-8.3,2.6-17.8,0.8-28.2-5.3c-0.2-0.1-0.3-0.2-0.4-0.4
		c-0.1-0.1-0.1-0.2-0.2-0.3c-0.1-0.2-1.1-2.6,0-5.6c0.6-1.6,1.7-3.3,3.8-5c0.6-0.5,1.5-0.4,2,0.2c0.1,0.1,8.4,9.3,19.2,9.5
		c5.8,0.1,11.3-2.3,16.4-7.3c-12.6-14-14.7-34.9-5-51.1C459-442.4,459.6-442.8,460.2-442.9z"/>
	<text transform="matrix(1 0 0 1 638.0018 -386.7263)"><tspan x="0" y="0" fill="#EDECE4" font-family="'Judson-Regular'" font-size="138.8906">c</tspan><tspan x="66.5" y="0" fill="#EDECE4" font-family="'Judson-Regular'" font-size="138.8906" letter-spacing="5">a</tspan><tspan x="139.2" y="0" fill="#EDECE4" font-family="'Judson-Regular'" font-size="138.8906">ro</tspan><tspan x="269.7" y="0" fill="#EDECE4" font-family="'Judson-Regular'" font-size="138.8906" letter-spacing="-11">l</tspan><tspan x="294.4" y="0" fill="#EDECE4" font-family="'Judson-Regular'" font-size="138.8906"> k</tspan><tspan x="397.4" y="0" fill="#EDECE4" font-family="'Judson-Regular'" font-size="138.8906" letter-spacing="2">a</tspan><tspan x="467.2" y="0" fill="#EDECE4" font-family="'Judson-Regular'" font-size="138.8906" letter-spacing="-2">h</tspan><tspan x="540.8" y="0" fill="#EDECE4" font-family="'Judson-Regular'" font-size="138.8906">n</tspan></text>
	<rect id="_x3C_Slice_x3E__9_" x="315.8" y="-581" fill="none" width="1008" height="331.2"/>
</g>
<g>
	<path opacity="0.3" fill="#3E1F54" d="M1511-428.5c18.8-2.7,33.6-17.8,36.2-36.5c0.1-0.6-0.1-1.3-0.6-1.7l-37.2,37.8
		C1509.9-428.6,1510.5-428.4,1511-428.5z"/>
	<path opacity="0.3" fill="#3E1F54" d="M1543.5-406.8c0.6-0.3,0.9-0.9,1-1.5c0.1-0.6-0.2-1.3-0.6-1.7c-12-11.2-29.5-14.4-44.5-8.6
		l-6.6,6.7C1506.5-399.3,1527.4-397.1,1543.5-406.8z"/>
	<path opacity="0.3" fill="#3E1F54" d="M1430-389.4L1430-389.4c-1.1,3,0,5.4,0,5.6c0,0.1,0.1,0.2,0.2,0.3c0.1,0.1,0.3,0.3,0.4,0.4
		c10.3,6,19.7,7.7,27.9,5.2c8.5-2.6,13.1-9,14.9-11.8c13.8,11.5,33.7,13.2,49.3,3.9c0.6-0.3,0.9-0.9,1-1.5c0.1-0.6-0.2-1.3-0.6-1.7
		c-11.9-11.1-29.1-14.3-44-8.8l-6.5,6.7C1453.9-368.9,1430-389.4,1430-389.4z"/>
	<path fill="#3E1F54" d="M1558.2-481.7c-36.1-36.1-94.6-36.1-130.7,0c-36.1,36.1-36.1,94.6,0,130.7c36.1,36.1,94.6,36.1,130.7,0
		C1594.3-387.1,1594.3-445.6,1558.2-481.7z M1544.9-467.3c0.6-0.1,1.3,0.1,1.7,0.6c0.4,0.5,0.7,1.1,0.6,1.7
		c-2.5,18.8-17.4,33.8-36.2,36.5c-0.6,0.1-1.2-0.1-1.6-0.5c0,0-0.1,0-0.1-0.1c0,0,0,0,0,0c-0.5-0.5-0.7-1.1-0.6-1.7
		C1511.2-449.6,1526.1-464.6,1544.9-467.3z M1488.4-464.4c0.6-0.1,1.3,0.2,1.7,0.6c11.5,12.3,14.5,30.2,8.3,45.5
		c0.3-0.1,0.6-0.2,0.9-0.3c15-5.8,32.5-2.6,44.5,8.6c0.5,0.4,0.7,1.1,0.6,1.7c-0.1,0.6-0.4,1.2-1,1.5c-16.1,9.7-36.9,7.5-50.8-5.2
		c-0.1-0.1-0.2-0.2-0.3-0.3c0,0,0,0-0.1,0l0,0l0,0l0,0c0,0,0,0,0-0.1c-12.9-13.9-15.2-34.9-5.4-51.1
		C1487.2-464,1487.7-464.4,1488.4-464.4z M1467.5-443.6c0.6-0.1,1.3,0.2,1.7,0.6c11.5,12.3,14.5,30.2,8.3,45.5
		c0.5-0.2,1-0.4,1.5-0.5c14.9-5.5,32.1-2.3,44,8.8c0.5,0.4,0.7,1.1,0.6,1.7c-0.1,0.6-0.4,1.2-1,1.5c-15.6,9.3-35.5,7.6-49.3-3.9
		c-1.7,2.8-6.4,9.2-14.9,11.8c-8.2,2.5-17.6,0.8-27.9-5.2c-0.2-0.1-0.3-0.2-0.4-0.4c-0.1-0.1-0.1-0.2-0.2-0.3
		c-0.1-0.2-1.1-2.6,0-5.6c0.6-1.6,1.7-3.3,3.8-5c0.6-0.5,1.5-0.4,2,0.2c0.1,0.1,8.3,9.2,19,9.4c5.7,0.1,11.2-2.3,16.2-7.2
		c-12.5-13.9-14.6-34.5-5-50.6C1466.3-443.1,1466.9-443.5,1467.5-443.6z"/>
	<text transform="matrix(1 0 0 1 1643.3376 -388.0505)"><tspan x="0" y="0" fill="#3E1F54" font-family="'Judson-Regular'" font-size="137.3838">c</tspan><tspan x="65.8" y="0" fill="#3E1F54" font-family="'Judson-Regular'" font-size="137.3838" letter-spacing="5">a</tspan><tspan x="137.7" y="0" fill="#3E1F54" font-family="'Judson-Regular'" font-size="137.3838">ro</tspan><tspan x="266.8" y="0" fill="#3E1F54" font-family="'Judson-Regular'" font-size="137.3838" letter-spacing="-10">l</tspan><tspan x="291.2" y="0" fill="#3E1F54" font-family="'Judson-Regular'" font-size="137.3838"> k</tspan><tspan x="393" y="0" fill="#3E1F54" font-family="'Judson-Regular'" font-size="137.3838" letter-spacing="2">a</tspan><tspan x="462.1" y="0" fill="#3E1F54" font-family="'Judson-Regular'" font-size="137.3838" letter-spacing="-2">h</tspan><tspan x="535" y="0" fill="#3E1F54" font-family="'Judson-Regular'" font-size="137.3838">n</tspan></text>
	<rect id="_x3C_Slice_x3E__10_" x="1323.8" y="-581" fill="none" width="1008" height="331.2"/>
</g>
<g>
	<path opacity="0.3" fill="#414042" d="M2519-428.5c18.8-2.7,33.6-17.8,36.2-36.5c0.1-0.6-0.1-1.3-0.6-1.7l-37.2,37.8
		C2517.9-428.6,2518.5-428.4,2519-428.5z"/>
	<path opacity="0.3" fill="#414042" d="M2551.5-406.8c0.6-0.3,0.9-0.9,1-1.5c0.1-0.6-0.2-1.3-0.6-1.7c-12-11.2-29.5-14.4-44.5-8.6
		l-6.6,6.7C2514.5-399.3,2535.4-397.1,2551.5-406.8z"/>
	<path opacity="0.3" fill="#414042" d="M2438-389.4L2438-389.4c-1.1,3,0,5.4,0,5.6c0,0.1,0.1,0.2,0.2,0.3c0.1,0.1,0.3,0.3,0.4,0.4
		c10.3,6,19.7,7.7,27.9,5.2c8.5-2.6,13.1-9,14.9-11.8c13.8,11.5,33.7,13.2,49.3,3.9c0.6-0.3,0.9-0.9,1-1.5c0.1-0.6-0.2-1.3-0.6-1.7
		c-11.9-11.1-29.1-14.3-44-8.8l-6.5,6.7C2461.9-368.9,2438-389.4,2438-389.4z"/>
	<path fill="#414042" d="M2566.2-481.7c-36.1-36.1-94.6-36.1-130.7,0c-36.1,36.1-36.1,94.6,0,130.7c36.1,36.1,94.6,36.1,130.7,0
		C2602.3-387.1,2602.3-445.6,2566.2-481.7z M2552.9-467.3c0.6-0.1,1.3,0.1,1.7,0.6c0.4,0.5,0.7,1.1,0.6,1.7
		c-2.5,18.8-17.4,33.8-36.2,36.5c-0.6,0.1-1.2-0.1-1.6-0.5c0,0-0.1,0-0.1-0.1c0,0,0,0,0,0c-0.5-0.5-0.7-1.1-0.6-1.7
		C2519.2-449.6,2534.1-464.6,2552.9-467.3z M2496.4-464.4c0.6-0.1,1.3,0.2,1.7,0.6c11.5,12.3,14.5,30.2,8.3,45.5
		c0.3-0.1,0.6-0.2,0.9-0.3c15-5.8,32.5-2.6,44.5,8.6c0.5,0.4,0.7,1.1,0.6,1.7c-0.1,0.6-0.4,1.2-1,1.5c-16.1,9.7-36.9,7.5-50.8-5.2
		c-0.1-0.1-0.2-0.2-0.3-0.3c0,0,0,0-0.1,0v0v0l0,0c0,0,0,0,0-0.1c-12.9-13.9-15.2-34.9-5.4-51.1
		C2495.2-464,2495.7-464.4,2496.4-464.4z M2475.5-443.6c0.6-0.1,1.3,0.2,1.7,0.6c11.5,12.3,14.5,30.2,8.3,45.5
		c0.5-0.2,1-0.4,1.5-0.5c14.9-5.5,32.1-2.3,44,8.8c0.5,0.4,0.7,1.1,0.6,1.7c-0.1,0.6-0.4,1.2-1,1.5c-15.6,9.3-35.5,7.6-49.3-3.9
		c-1.7,2.8-6.4,9.2-14.9,11.8c-8.2,2.5-17.6,0.8-27.9-5.2c-0.2-0.1-0.3-0.2-0.4-0.4c-0.1-0.1-0.1-0.2-0.2-0.3
		c-0.1-0.2-1.1-2.6,0-5.6c0.6-1.6,1.7-3.3,3.8-5c0.6-0.5,1.5-0.4,2,0.2c0.1,0.1,8.3,9.2,19,9.4c5.7,0.1,11.2-2.3,16.2-7.2
		c-12.5-13.9-14.6-34.5-5-50.6C2474.3-443.1,2474.9-443.5,2475.5-443.6z"/>
	<text transform="matrix(1 0 0 1 2651.3376 -388.0505)"><tspan x="0" y="0" fill="#414042" font-family="'Judson-Regular'" font-size="137.3838">c</tspan><tspan x="65.8" y="0" fill="#414042" font-family="'Judson-Regular'" font-size="137.3838" letter-spacing="5">a</tspan><tspan x="137.7" y="0" fill="#414042" font-family="'Judson-Regular'" font-size="137.3838">ro</tspan><tspan x="266.8" y="0" fill="#414042" font-family="'Judson-Regular'" font-size="137.3838" letter-spacing="-10">l</tspan><tspan x="291.2" y="0" fill="#414042" font-family="'Judson-Regular'" font-size="137.3838"> k</tspan><tspan x="393" y="0" fill="#414042" font-family="'Judson-Regular'" font-size="137.3838" letter-spacing="2">a</tspan><tspan x="462.1" y="0" fill="#414042" font-family="'Judson-Regular'" font-size="137.3838" letter-spacing="-2">h</tspan><tspan x="535" y="0" fill="#414042" font-family="'Judson-Regular'" font-size="137.3838">n</tspan></text>
	<rect id="_x3C_Slice_x3E__11_" x="2331.8" y="-581" fill="none" width="1008" height="331.2"/>
</g>
<path fill="none" d="M-189.6-1234c0,0,0.1,0.1,0.1,0.1l0,0l0,0l0,0c0,0,0.1,0.1,0.1,0.1c0.2,0.2,0.5,0.4,0.8,0.7l15.6-15.8
	c-0.7,0.3-1.5,0.5-2.2,0.8c14.8-35.9,7.6-78.1-19.4-107.1c-1-1.1-2.5-1.7-4.1-1.5c-1.5,0.2-2.9,1-3.6,2.3
	C-225.3-1316.1-220.1-1266.6-189.6-1234z"/>
<path fill="none" d="M-149.5-1273.4C-149.5-1273.4-149.5-1273.4-149.5-1273.4c0.1,0.1,0.2,0.1,0.3,0.2l87.5-89
	c-1.1-1.1-2.6-1.6-4.1-1.3c-44.1,6.5-79.1,41.8-85.1,86C-151.1-1276-150.6-1274.5-149.5-1273.4z"/>
<path fill="none" d="M-239.8-1186.2c-11.9,11.5-24.7,17.3-38.2,17c-25.2-0.6-44.5-22-44.7-22.2c-1.2-1.4-3.3-1.5-4.7-0.4
	c-5,3.9-7.6,8-8.9,11.7l0,0c0,0,56.4,48.4,99.9-4.5l15.4-15.7c-1.2,0.4-2.3,0.8-3.5,1.3c14.8-35.9,7.6-78.1-19.4-107.1
	c-1-1.1-2.5-1.7-4.1-1.5c-1.5,0.2-2.9,1-3.6,2.3C-274.1-1267.5-269.2-1218.8-239.8-1186.2z"/>
<path opacity="0.3" fill="#286C49" d="M-145.4-1272c44.1-6.5,79.1-41.8,85.1-86c0.2-1.5-0.3-3-1.4-4.1l-87.5,89
	C-148.1-1272.3-146.8-1271.8-145.4-1272z"/>
<path opacity="0.3" fill="#286C49" d="M-69-1220.9c1.3-0.8,2.2-2.1,2.3-3.6c0.2-1.5-0.4-3-1.5-4.1c-28.4-26.5-69.4-33.8-104.8-20.3
	l-15.6,15.8C-156-1203.2-107-1198.2-69-1220.9z"/>
<path opacity="0.3" fill="#286C49" d="M-336.2-1180.1L-336.2-1180.1c-2.5,7.1-0.1,12.8,0.1,13.2c0.1,0.3,0.3,0.5,0.4,0.7
	c0.3,0.3,0.6,0.6,1,0.8c24.2,14.1,46.3,18.2,65.6,12.2c19.9-6.1,30.9-21.1,35-27.8c32.5,27.1,79.4,31,116,9.1
	c1.3-0.8,2.2-2.1,2.3-3.6c0.2-1.5-0.4-3-1.5-4.1c-28-26.2-68.5-33.7-103.6-20.7l-15.4,15.7C-279.9-1131.7-336.2-1180.1-336.2-1180.1
	z"/>
<path fill="#286C49" d="M-34.4-1397.3c-84.9-84.9-222.6-84.9-307.5,0c-84.9,84.9-84.9,222.6,0,307.5c84.9,84.9,222.6,84.9,307.5,0
	C50.5-1174.7,50.5-1312.4-34.4-1397.3z M-65.8-1363.5c1.5-0.2,3,0.3,4.1,1.3c1,1.1,1.6,2.6,1.4,4.1c-6,44.2-41,79.6-85.1,86
	c-1.4,0.2-2.7-0.3-3.8-1.1c-0.1-0.1-0.2-0.1-0.3-0.2c0,0,0,0,0,0c-1.1-1.1-1.6-2.6-1.4-4.1C-144.9-1321.7-109.9-1357-65.8-1363.5z
	 M-198.8-1356.6c1.5-0.2,3,0.4,4.1,1.5c27,28.9,34.2,71.2,19.4,107.1c0.7-0.3,1.5-0.5,2.2-0.8c35.4-13.6,76.5-6.2,104.8,20.3
	c1.1,1.1,1.7,2.5,1.5,4.1c-0.2,1.5-1,2.9-2.3,3.6c-38,22.7-87,17.7-119.6-12.1c-0.2-0.2-0.5-0.4-0.8-0.7c0,0-0.1-0.1-0.1-0.1l0,0
	l0,0l0,0c0,0-0.1-0.1-0.1-0.1c-30.5-32.6-35.7-82.1-12.8-120.3C-201.6-1355.6-200.3-1356.5-198.8-1356.6z M-247.9-1307.6
	c1.5-0.2,3,0.4,4.1,1.5c27,28.9,34.2,71.2,19.4,107.1c1.1-0.5,2.3-0.9,3.5-1.3c35.1-12.9,75.6-5.4,103.6,20.7c1.1,1,1.7,2.5,1.5,4.1
	c-0.2,1.5-1,2.9-2.3,3.6c-36.6,21.9-83.5,18-116-9.1c-4.1,6.7-15.1,21.6-35,27.8c-19.3,5.9-41.4,1.8-65.6-12.2
	c-0.4-0.2-0.7-0.5-1-0.8c-0.2-0.2-0.3-0.5-0.4-0.7c-0.2-0.4-2.6-6-0.1-13.2c1.3-3.7,3.9-7.8,8.9-11.7c1.4-1.1,3.5-0.9,4.7,0.4
	c0.2,0.2,19.5,21.7,44.7,22.2c13.4,0.3,26.2-5.5,38.2-17c-29.4-32.6-34.3-81.3-11.7-119C-250.7-1306.5-249.4-1307.4-247.9-1307.6z"
	/>
<text transform="matrix(1 0 0 1 -620.2175 -841.7012)"><tspan x="0" y="0" fill="#286C49" font-family="'Judson-Regular'" font-size="194.0304">c</tspan><tspan x="92.9" y="0" fill="#286C49" font-family="'Judson-Regular'" font-size="194.0304" letter-spacing="7">a</tspan><tspan x="194.4" y="0" fill="#286C49" font-family="'Judson-Regular'" font-size="194.0304">ro</tspan><tspan x="376.8" y="0" fill="#286C49" font-family="'Judson-Regular'" font-size="194.0304" letter-spacing="-15">l</tspan><tspan x="411.3" y="0" fill="#286C49" font-family="'Judson-Regular'" font-size="194.0304"> k</tspan><tspan x="555.1" y="0" fill="#286C49" font-family="'Judson-Regular'" font-size="194.0304" letter-spacing="3">a</tspan><tspan x="652.7" y="0" fill="#286C49" font-family="'Judson-Regular'" font-size="194.0304" letter-spacing="-3">h</tspan><tspan x="755.5" y="0" fill="#286C49" font-family="'Judson-Regular'" font-size="194.0304">n</tspan></text>
<rect id="_x3C_Slice_x3E__20_" x="-692.2" y="-1508.9" fill="none" width="1008" height="763.2"/>
<g>
	<path fill="none" d="M818.4-1234c0,0,0.1,0.1,0.1,0.1l0,0l0,0l0,0c0,0,0.1,0.1,0.1,0.1c0.2,0.2,0.5,0.4,0.8,0.7l15.6-15.8
		c-0.7,0.3-1.5,0.5-2.2,0.8c14.8-35.9,7.6-78.1-19.4-107.1c-1-1.1-2.5-1.7-4.1-1.5c-1.5,0.2-2.9,1-3.6,2.3
		C782.7-1316.1,787.9-1266.6,818.4-1234z"/>
	<path fill="none" d="M858.5-1273.4C858.5-1273.4,858.5-1273.4,858.5-1273.4c0.1,0.1,0.2,0.1,0.3,0.2l87.5-89
		c-1.1-1.1-2.6-1.6-4.1-1.3c-44.1,6.5-79.1,41.8-85.1,86C856.9-1276,857.4-1274.5,858.5-1273.4z"/>
	<path fill="none" d="M768.2-1186.2c-11.9,11.5-24.7,17.3-38.2,17c-25.2-0.6-44.5-22-44.7-22.2c-1.2-1.4-3.3-1.5-4.7-0.4
		c-5,3.9-7.6,8-8.9,11.7l0,0c0,0,56.4,48.4,99.9-4.5l15.4-15.7c-1.2,0.4-2.3,0.8-3.5,1.3c14.8-35.9,7.6-78.1-19.4-107.1
		c-1-1.1-2.5-1.7-4.1-1.5c-1.5,0.2-2.9,1-3.6,2.3C733.9-1267.5,738.8-1218.8,768.2-1186.2z"/>
	<path opacity="0.28" fill="#EDECE4" d="M862.6-1272c44.1-6.5,79.1-41.8,85.1-86c0.2-1.5-0.3-3-1.4-4.1l-87.5,89
		C859.9-1272.3,861.2-1271.8,862.6-1272z"/>
	<path opacity="0.28" fill="#EDECE4" d="M939-1220.9c1.3-0.8,2.2-2.1,2.3-3.6c0.2-1.5-0.4-3-1.5-4.1
		c-28.4-26.5-69.4-33.8-104.8-20.3l-15.6,15.8C852-1203.2,901-1198.2,939-1220.9z"/>
	<path opacity="0.28" fill="#EDECE4" d="M671.8-1180.1L671.8-1180.1c-2.5,7.1-0.1,12.8,0.1,13.2c0.1,0.3,0.3,0.5,0.4,0.7
		c0.3,0.3,0.6,0.6,1,0.8c24.2,14.1,46.3,18.2,65.6,12.2c19.9-6.1,30.9-21.1,35-27.8c32.5,27.1,79.4,31,116,9.1
		c1.3-0.8,2.2-2.1,2.3-3.6c0.2-1.5-0.4-3-1.5-4.1c-28-26.2-68.5-33.7-103.6-20.7l-15.4,15.7C728.1-1131.7,671.8-1180.1,671.8-1180.1
		z"/>
	<path fill="#EDECE4" d="M973.6-1397.3c-84.9-84.9-222.6-84.9-307.5,0c-84.9,84.9-84.9,222.6,0,307.5c84.9,84.9,222.6,84.9,307.5,0
		C1058.5-1174.7,1058.5-1312.4,973.6-1397.3z M942.2-1363.5c1.5-0.2,3,0.3,4.1,1.3c1,1.1,1.6,2.6,1.4,4.1c-6,44.2-41,79.6-85.1,86
		c-1.4,0.2-2.7-0.3-3.8-1.1c-0.1-0.1-0.2-0.1-0.3-0.2c0,0,0,0,0,0c-1.1-1.1-1.6-2.6-1.4-4.1C863.1-1321.7,898.1-1357,942.2-1363.5z
		 M809.2-1356.6c1.5-0.2,3,0.4,4.1,1.5c27,28.9,34.2,71.2,19.4,107.1c0.7-0.3,1.5-0.5,2.2-0.8c35.4-13.6,76.5-6.2,104.8,20.3
		c1.1,1.1,1.7,2.5,1.5,4.1c-0.2,1.5-1,2.9-2.3,3.6c-38,22.7-87,17.7-119.6-12.1c-0.2-0.2-0.5-0.4-0.8-0.7c0,0-0.1-0.1-0.1-0.1l0,0
		l0,0l0,0c0,0-0.1-0.1-0.1-0.1c-30.5-32.6-35.7-82.1-12.8-120.3C806.4-1355.6,807.7-1356.5,809.2-1356.6z M760.1-1307.6
		c1.5-0.2,3,0.4,4.1,1.5c27,28.9,34.2,71.2,19.4,107.1c1.1-0.5,2.3-0.9,3.5-1.3c35.1-12.9,75.6-5.4,103.6,20.7
		c1.1,1,1.7,2.5,1.5,4.1c-0.2,1.5-1,2.9-2.3,3.6c-36.6,21.9-83.5,18-116-9.1c-4.1,6.7-15.1,21.6-35,27.8
		c-19.3,5.9-41.4,1.8-65.6-12.2c-0.4-0.2-0.7-0.5-1-0.8c-0.2-0.2-0.3-0.5-0.4-0.7c-0.2-0.4-2.6-6-0.1-13.2c1.3-3.7,3.9-7.8,8.9-11.7
		c1.4-1.1,3.5-0.9,4.7,0.4c0.2,0.2,19.5,21.7,44.7,22.2c13.4,0.3,26.2-5.5,38.2-17c-29.4-32.6-34.3-81.3-11.7-119
		C757.3-1306.5,758.6-1307.4,760.1-1307.6z"/>
	<text transform="matrix(1 0 0 1 387.7833 -841.7012)"><tspan x="0" y="0" fill="#EDECE4" font-family="'Judson-Regular'" font-size="194.0304">c</tspan><tspan x="92.9" y="0" fill="#EDECE4" font-family="'Judson-Regular'" font-size="194.0304" letter-spacing="7">a</tspan><tspan x="194.4" y="0" fill="#EDECE4" font-family="'Judson-Regular'" font-size="194.0304">ro</tspan><tspan x="376.8" y="0" fill="#EDECE4" font-family="'Judson-Regular'" font-size="194.0304" letter-spacing="-15">l</tspan><tspan x="411.3" y="0" fill="#EDECE4" font-family="'Judson-Regular'" font-size="194.0304"> k</tspan><tspan x="555.1" y="0" fill="#EDECE4" font-family="'Judson-Regular'" font-size="194.0304" letter-spacing="3">a</tspan><tspan x="652.7" y="0" fill="#EDECE4" font-family="'Judson-Regular'" font-size="194.0304" letter-spacing="-3">h</tspan><tspan x="755.5" y="0" fill="#EDECE4" font-family="'Judson-Regular'" font-size="194.0304">n</tspan></text>
	<rect id="_x3C_Slice_x3E__21_" x="315.8" y="-1508.9" fill="none" width="1008" height="763.2"/>
</g>
<g>
	<path fill="#3E1F54" d="M1981.6-1397.3c-84.9-84.9-222.6-84.9-307.5,0c-84.9,84.9-84.9,222.6,0,307.5c84.9,84.9,222.6,84.9,307.5,0
		C2066.5-1174.7,2066.5-1312.4,1981.6-1397.3z M1950.2-1363.5c1.5-0.2,3,0.3,4.1,1.3c1,1.1,1.6,2.6,1.4,4.1c-6,44.2-41,79.6-85.1,86
		c-1.4,0.2-2.7-0.3-3.8-1.1c-0.1-0.1-0.2-0.1-0.3-0.2c0,0,0,0,0,0c-1.1-1.1-1.6-2.6-1.4-4.1
		C1871.1-1321.7,1906.1-1357,1950.2-1363.5z M1817.2-1356.6c1.5-0.2,3,0.4,4.1,1.5c27,28.9,34.2,71.2,19.4,107.1
		c0.7-0.3,1.5-0.5,2.2-0.8c35.4-13.6,76.5-6.2,104.8,20.3c1.1,1.1,1.7,2.5,1.5,4.1c-0.2,1.5-1,2.9-2.3,3.6
		c-38,22.7-87,17.7-119.6-12.1c-0.2-0.2-0.5-0.4-0.8-0.7c0,0-0.1-0.1-0.1-0.1l0,0l0,0l0,0c0,0-0.1-0.1-0.1-0.1
		c-30.5-32.6-35.7-82.1-12.8-120.3C1814.4-1355.6,1815.7-1356.5,1817.2-1356.6z M1768.1-1307.6c1.5-0.2,3,0.4,4.1,1.5
		c27,28.9,34.2,71.2,19.4,107.1c1.1-0.5,2.3-0.9,3.5-1.3c35.1-12.9,75.6-5.4,103.6,20.7c1.1,1,1.7,2.5,1.5,4.1
		c-0.2,1.5-1,2.9-2.3,3.6c-36.6,21.9-83.5,18-116-9.1c-4.1,6.7-15.1,21.6-35,27.8c-19.3,5.9-41.4,1.8-65.6-12.2
		c-0.4-0.2-0.7-0.5-1-0.8c-0.2-0.2-0.3-0.5-0.4-0.7c-0.2-0.4-2.6-6-0.1-13.2c1.3-3.7,3.9-7.8,8.9-11.7c1.4-1.1,3.5-0.9,4.7,0.4
		c0.2,0.2,19.5,21.7,44.7,22.2c13.4,0.3,26.2-5.5,38.2-17c-29.4-32.6-34.3-81.3-11.7-119C1765.3-1306.5,1766.6-1307.4,1768.1-1307.6
		z"/>
	<text transform="matrix(1 0 0 1 1395.7837 -841.7031)"><tspan x="0" y="0" fill="#3E1F54" font-family="'Judson-Regular'" font-size="194.0304">c</tspan><tspan x="92.9" y="0" fill="#3E1F54" font-family="'Judson-Regular'" font-size="194.0304" letter-spacing="7">a</tspan><tspan x="194.4" y="0" fill="#3E1F54" font-family="'Judson-Regular'" font-size="194.0304">ro</tspan><tspan x="376.8" y="0" fill="#3E1F54" font-family="'Judson-Regular'" font-size="194.0304" letter-spacing="-15">l</tspan><tspan x="411.3" y="0" fill="#3E1F54" font-family="'Judson-Regular'" font-size="194.0304"> k</tspan><tspan x="555.1" y="0" fill="#3E1F54" font-family="'Judson-Regular'" font-size="194.0304" letter-spacing="3">a</tspan><tspan x="652.7" y="0" fill="#3E1F54" font-family="'Judson-Regular'" font-size="194.0304" letter-spacing="-3">h</tspan><tspan x="755.5" y="0" fill="#3E1F54" font-family="'Judson-Regular'" font-size="194.0304">n</tspan></text>
	<rect id="_x3C_Slice_x3E__22_" x="1323.8" y="-1508.9" fill="none" width="1008" height="763.2"/>
</g>
<path fill="#3E1F54" d="M371.2,63.7c-84.9-84.9-222.6-84.9-307.5,0c-84.9,84.9-84.9,222.6,0,307.5c84.9,84.9,222.6,84.9,307.5,0
	C456.2,286.3,456.2,148.6,371.2,63.7z M339.9,97.5c1.5-0.2,3,0.3,4.1,1.3c1,1.1,1.6,2.6,1.4,4.1c-6,44.2-41,79.6-85.1,86
	c-1.4,0.2-2.7-0.3-3.8-1.1c-0.1-0.1-0.2-0.1-0.3-0.2c0,0,0,0,0,0c-1.1-1.1-1.6-2.6-1.4-4.1C260.8,139.3,295.8,104,339.9,97.5z
	 M206.9,104.4c1.5-0.2,3,0.4,4.1,1.5c27,28.9,34.2,71.2,19.4,107.1c0.7-0.3,1.5-0.5,2.2-0.8c35.4-13.6,76.5-6.2,104.8,20.3
	c1.1,1.1,1.7,2.5,1.5,4.1c-0.2,1.5-1,2.9-2.3,3.6c-38,22.7-87,17.7-119.6-12.1c-0.2-0.2-0.5-0.4-0.8-0.7c0,0-0.1-0.1-0.1-0.1l0,0
	l0,0l0,0c0,0-0.1-0.1-0.1-0.1c-30.5-32.6-35.7-82.1-12.8-120.3C204,105.4,205.4,104.5,206.9,104.4z M157.8,153.5
	c1.5-0.2,3,0.4,4.1,1.5c27,28.9,34.2,71.2,19.4,107.1c1.1-0.5,2.3-0.9,3.5-1.3c35.1-12.9,75.6-5.4,103.6,20.7c1.1,1,1.7,2.5,1.5,4.1
	c-0.2,1.5-1,2.9-2.3,3.6c-36.6,21.9-83.5,18-116-9.1c-4.1,6.7-15.1,21.6-35,27.8c-19.3,5.9-41.4,1.8-65.6-12.2
	c-0.4-0.2-0.7-0.5-1-0.8c-0.2-0.2-0.3-0.5-0.4-0.7c-0.2-0.4-2.6-6-0.1-13.2c1.3-3.7,3.9-7.8,8.9-11.7c1.4-1.1,3.5-0.9,4.7,0.4
	c0.2,0.2,19.5,21.7,44.7,22.2c13.4,0.3,26.2-5.5,38.2-17c-29.4-32.6-34.3-81.3-11.7-119C154.9,154.5,156.3,153.6,157.8,153.5z"/>
<path opacity="0.3" fill="#3E1F54" d="M260.3,189c44.1-6.5,79.1-41.8,85.1-86c0.2-1.5-0.3-3-1.4-4.1l-87.5,89
	C257.6,188.7,258.9,189.2,260.3,189z"/>
<path opacity="0.3" fill="#3E1F54" d="M337.5,232.4c-27.9-26.1-68.2-33.6-103.2-20.9l0.1-0.1l-4,1.5l-13.3,15h0l0,0
	c32.6,29.8,81.6,34.9,119.6,12.1c1.3-0.8,2.2-2.1,2.3-3.6C339.1,234.9,338.6,233.5,337.5,232.4z"/>
<g>
	<path fill="#414042" d="M2989.6-1397.3c-84.9-84.9-222.6-84.9-307.5,0c-84.9,84.9-84.9,222.6,0,307.5c84.9,84.9,222.6,84.9,307.5,0
		C3074.5-1174.7,3074.5-1312.4,2989.6-1397.3z M2958.2-1363.5c1.5-0.2,3,0.3,4.1,1.3c1,1.1,1.6,2.6,1.4,4.1c-6,44.2-41,79.6-85.1,86
		c-1.4,0.2-2.7-0.3-3.8-1.1c-0.1-0.1-0.2-0.1-0.3-0.2c0,0,0,0,0,0c-1.1-1.1-1.6-2.6-1.4-4.1
		C2879.1-1321.7,2914.1-1357,2958.2-1363.5z M2825.2-1356.6c1.5-0.2,3,0.4,4.1,1.5c27,28.9,34.2,71.2,19.4,107.1
		c0.7-0.3,1.5-0.5,2.2-0.8c35.4-13.6,76.5-6.2,104.8,20.3c1.1,1.1,1.7,2.5,1.5,4.1c-0.2,1.5-1,2.9-2.3,3.6
		c-38,22.7-87,17.7-119.6-12.1c-0.2-0.2-0.5-0.4-0.8-0.7c0,0-0.1-0.1-0.1-0.1l0,0l0,0l0,0c0,0-0.1-0.1-0.1-0.1
		c-30.5-32.6-35.7-82.1-12.8-120.3C2822.4-1355.6,2823.7-1356.5,2825.2-1356.6z M2776.1-1307.6c1.5-0.2,3,0.4,4.1,1.5
		c27,28.9,34.2,71.2,19.4,107.1c1.1-0.5,2.3-0.9,3.5-1.3c35.1-12.9,75.6-5.4,103.6,20.7c1.1,1,1.7,2.5,1.5,4.1
		c-0.2,1.5-1,2.9-2.3,3.6c-36.6,21.9-83.5,18-116-9.1c-4.1,6.7-15.1,21.6-35,27.8c-19.3,5.9-41.4,1.8-65.6-12.2
		c-0.4-0.2-0.7-0.5-1-0.8c-0.2-0.2-0.3-0.5-0.4-0.7c-0.2-0.4-2.6-6-0.1-13.2c1.3-3.7,3.9-7.8,8.9-11.7c1.4-1.1,3.5-0.9,4.7,0.4
		c0.2,0.2,19.5,21.7,44.7,22.2c13.4,0.3,26.2-5.5,38.2-17c-29.4-32.6-34.3-81.3-11.7-119C2773.3-1306.5,2774.6-1307.4,2776.1-1307.6
		z"/>
	<text transform="matrix(1 0 0 1 2403.7842 -841.7021)"><tspan x="0" y="0" fill="#414042" font-family="'Judson-Regular'" font-size="194.0304">c</tspan><tspan x="92.9" y="0" fill="#414042" font-family="'Judson-Regular'" font-size="194.0304" letter-spacing="7">a</tspan><tspan x="194.4" y="0" fill="#414042" font-family="'Judson-Regular'" font-size="194.0304">ro</tspan><tspan x="376.8" y="0" fill="#414042" font-family="'Judson-Regular'" font-size="194.0304" letter-spacing="-15">l</tspan><tspan x="411.3" y="0" fill="#414042" font-family="'Judson-Regular'" font-size="194.0304"> k</tspan><tspan x="555.1" y="0" fill="#414042" font-family="'Judson-Regular'" font-size="194.0304" letter-spacing="3">a</tspan><tspan x="652.7" y="0" fill="#414042" font-family="'Judson-Regular'" font-size="194.0304" letter-spacing="-3">h</tspan><tspan x="755.5" y="0" fill="#414042" font-family="'Judson-Regular'" font-size="194.0304">n</tspan></text>
	<rect id="_x3C_Slice_x3E__23_" x="2331.8" y="-1508.9" fill="none" width="1008" height="763.2"/>
</g>
<path opacity="0.3" fill="#3E1F54" d="M288.4,281.5c-26.9-25.1-65.2-33-99.3-22.2l0,0l-0.3,0.1c-1.3,0.4-2.7,0.9-4,1.4l0,0l-3.4,1.2
	l-11.9,14.4c-43.6,52.9-99.9,4.5-99.9,4.5c-2.5,7.1-0.1,12.8,0.1,13.2c0.1,0.3,0.3,0.5,0.4,0.7c0.3,0.3,0.6,0.6,1,0.8
	c24.2,14.1,46.3,18.2,65.6,12.2c19.9-6.1,30.9-21.1,35-27.8c32.5,27.1,79.4,31,116,9.1c1.3-0.8,2.2-2.1,2.3-3.6
	C290,284,289.5,282.5,288.4,281.5z"/>
</svg>
