<?xml version="1.0" encoding="UTF-8" standalone="no"?>
<svg
   xmlns:dc="http://purl.org/dc/elements/1.1/"
   xmlns:cc="http://creativecommons.org/ns#"
   xmlns:rdf="http://www.w3.org/1999/02/22-rdf-syntax-ns#"
   xmlns:svg="http://www.w3.org/2000/svg"
   xmlns="http://www.w3.org/2000/svg"
   version="1.1"
   id="svg3781"
   viewBox="0 0 543.65001 543.64904"
   height="153.42984mm"
   width="153.43011mm">
  <defs
     id="defs3783">
    <clipPath
       id="clipPath3753"
       clipPathUnits="userSpaceOnUse">
      <path
         id="path3755"
         d="m 0,1259.132 4032,0 L 4032,0 0,0 0,1259.132 Z" />
    </clipPath>
  </defs>
  <metadata
     id="metadata3786">
    <rdf:RDF>
      <cc:Work
         rdf:about="">
        <dc:format>image/svg+xml</dc:format>
        <dc:type
           rdf:resource="http://purl.org/dc/dcmitype/StillImage" />
        <dc:title></dc:title>
      </cc:Work>
    </rdf:RDF>
  </metadata>
  <g
     transform="translate(0.39635,0.60515)"
     id="layer1">
    <g
       id="g3749"
       transform="matrix(1.25,0,0,-1.25,-2878.5816,1513.4471)">
      <g
         clip-path="url(#clipPath3753)"
         id="g3751">
        <g
           transform="translate(2460.3572,1057.7908)"
           id="g3757">
          <path
             id="path3759"
             style="fill:#3e1e54;fill-opacity:1;fill-rule:nonzero;stroke:none"
             d="m 0,0 c 1.513,0.161 3.024,-0.396 4.052,-1.511 27.029,-28.941 34.193,-71.175 19.441,-107.051 1.147,0.471 2.318,0.857 3.478,1.284 35.102,12.925 75.558,5.438 103.574,-20.726 1.123,-1.031 1.673,-2.539 1.511,-4.052 -0.16,-1.513 -1.022,-2.862 -2.327,-3.645 -36.618,-21.939 -83.493,-17.988 -116.038,9.1 -4.068,-6.673 -15.075,-21.649 -34.967,-27.771 -19.31,-5.941 -41.39,-1.822 -65.629,12.245 -0.371,0.216 -0.696,0.498 -0.96,0.83 -0.173,0.218 -0.319,0.457 -0.436,0.713 -0.16,0.354 -2.595,6.021 -0.081,13.154 1.301,3.688 3.9,7.76 8.872,11.708 1.423,1.129 3.48,0.948 4.683,-0.412 0.191,-0.214 19.523,-21.659 44.679,-22.214 13.428,-0.295 26.248,5.471 38.165,16.999 C -21.384,-88.738 -26.262,-40.076 -3.645,-2.328 -2.862,-1.022 -1.513,-0.16 0,0 m 49.093,49.093 c 1.512,0.161 3.003,-0.384 4.053,-1.51 27.029,-28.942 34.193,-71.176 19.441,-107.052 0.729,0.3 1.476,0.535 2.211,0.817 35.392,13.579 76.488,6.221 104.841,-20.258 1.129,-1.051 1.671,-2.54 1.51,-4.053 -0.16,-1.512 -1.022,-2.862 -2.327,-3.644 -37.959,-22.744 -86.966,-17.702 -119.579,12.14 -0.248,0.228 -0.517,0.426 -0.764,0.656 -0.041,0.038 -0.08,0.076 -0.118,0.115 l -10e-4,0 0,0 0,0.001 c -0.039,0.039 -0.078,0.078 -0.115,0.119 C 27.794,-40.97 22.531,8.517 45.449,46.766 c 0.782,1.305 2.132,2.167 3.644,2.327 m 133,6.868 c 1.505,0.221 3.027,-0.279 4.109,-1.349 1.049,-1.111 1.598,-2.586 1.394,-4.093 -5.974,-44.188 -40.978,-79.562 -85.122,-86.025 -1.375,-0.201 -2.726,0.263 -3.781,1.148 -0.099,0.084 -0.234,0.108 -0.328,0.201 -0.006,0.006 -0.013,0.012 -0.019,0.019 -1.069,1.069 -1.578,2.576 -1.375,4.074 5.974,44.187 40.977,79.562 85.122,86.025 m 31.325,33.797 c -84.923,84.924 -222.611,84.924 -307.534,0 -84.924,-84.923 -84.924,-222.61 0,-307.534 84.923,-84.923 222.611,-84.923 307.534,0 84.924,84.924 84.924,222.611 0,307.534" />
        </g>
      </g>
    </g>
  </g>
</svg>
